<?xml version="1.0" encoding="UTF-8" standalone="no"?>
<!-- Created with Inkscape (http://www.inkscape.org/) -->

<svg
   xmlns:dc="http://purl.org/dc/elements/1.1/"
   xmlns:cc="http://creativecommons.org/ns#"
   xmlns:rdf="http://www.w3.org/1999/02/22-rdf-syntax-ns#"
   xmlns:svg="http://www.w3.org/2000/svg"
   xmlns="http://www.w3.org/2000/svg"
   xmlns:sodipodi="http://sodipodi.sourceforge.net/DTD/sodipodi-0.dtd"
   xmlns:inkscape="http://www.inkscape.org/namespaces/inkscape"
   width="300"
   height="100"
   viewBox="0 0 300 100"
   id="svg2"
   version="1.1"
   inkscape:version="0.91 r13725"
   sodipodi:docname="calK-logo.svg">
  <defs
     id="defs4" />
  <sodipodi:namedview
     id="base"
     pagecolor="#ffffff"
     bordercolor="#666666"
     borderopacity="1.0"
     inkscape:pageopacity="0.0"
     inkscape:pageshadow="2"
     inkscape:zoom="1.979899"
     inkscape:cx="188.83056"
     inkscape:cy="82.509457"
     inkscape:document-units="px"
     inkscape:current-layer="layer1"
     showgrid="false"
     units="px"
     inkscape:window-width="1366"
     inkscape:window-height="703"
     inkscape:window-x="0"
     inkscape:window-y="0"
     inkscape:window-maximized="1" />
  <metadata
     id="metadata7">
    <rdf:RDF>
      <cc:Work
         rdf:about="">
        <dc:format>image/svg+xml</dc:format>
        <dc:type
           rdf:resource="http://purl.org/dc/dcmitype/StillImage" />
        <dc:title></dc:title>
      </cc:Work>
    </rdf:RDF>
  </metadata>
  <g
     inkscape:label="Capa 1"
     inkscape:groupmode="layer"
     id="layer1"
     transform="translate(0,-952.36216)">
    <flowRoot
       xml:space="preserve"
       id="flowRoot4136"
       style="font-style:normal;font-weight:normal;font-size:40px;line-height:125%;font-family:sans-serif;letter-spacing:1px;word-spacing:0px;fill:#000000;fill-opacity:1;stroke:none;stroke-width:1px;stroke-linecap:butt;stroke-linejoin:miter;stroke-opacity:1;"
       transform="translate(0,952.36216)"><flowRegion
         id="flowRegion4138"><rect
           id="rect4140"
           width="195.96959"
           height="78.286819"
           x="16.162441"
           y="12.116729"
           style="letter-spacing:1px;" /></flowRegion><flowPara
         id="flowPara4142" /></flowRoot>    <g
       id="g4268"
       transform="matrix(1.8367264,0,0,1.8367264,-32.298843,-839.81068)">
      <path
         d="m 64.561881,982.9879 0,6.96779 q -3.336686,-3.1077 -7.131349,-4.64519 -3.761951,-1.53749 -8.01459,-1.53749 -8.374429,0 -12.823344,5.13588 -4.448916,5.10316 -4.448916,14.78611 0,9.6502 4.448916,14.7861 4.448915,5.1032 12.823344,5.1032 4.252639,0 8.01459,-1.5375 3.794663,-1.5375 7.131349,-4.6452 l 0,6.9023 q -3.467536,2.3553 -7.360338,3.533 -3.860087,1.1776 -8.178152,1.1776 -11.089577,0 -17.468537,-6.7715 -6.37896,-6.8042 -6.37896,-18.548 0,-11.77655 6.37896,-18.54807 6.37896,-6.80422 17.468537,-6.80422 4.383489,0 8.243578,1.17765 3.8928,1.14495 7.294912,3.46754 z"
         style="font-style:normal;font-variant:normal;font-weight:normal;font-stretch:normal;font-size:medium;line-height:125%;font-family:Dingbats;-inkscape-font-specification:Dingbats;letter-spacing:1px;word-spacing:0px;fill:#4d4d4d;fill-opacity:0.94117647;stroke:none;stroke-width:1px;stroke-linecap:butt;stroke-linejoin:miter;stroke-opacity:1"
         id="path4233"
         inkscape:connector-curvature="0" />
      <path
         d="m 92.897547,1009.6487 q -7.294913,0 -10.108197,1.6683 -2.813286,1.6684 -2.813286,5.692 0,3.2059 2.093607,5.1032 2.126322,1.8646 5.75742,1.8646 5.005031,0 8.014592,-3.533 3.042272,-3.5656 3.042272,-9.4539 l 0,-1.3412 -5.986408,0 z m 12.005533,-2.4862 0,20.9034 -6.019125,0 0,-5.5612 q -2.060895,3.3367 -5.135879,4.9396 -3.074987,1.5702 -7.523902,1.5702 -5.62657,0 -8.963256,-3.1404 -3.303975,-3.1731 -3.303975,-8.4725 0,-6.1827 4.12179,-9.3231 4.154503,-3.1404 12.365367,-3.1404 l 8.439855,0 0,-0.5889 q 0,-4.1545 -2.747859,-6.41163 -2.715147,-2.28989 -7.654752,-2.28989 -3.140411,0 -6.117258,0.75239 -2.976848,0.75239 -5.724708,2.25717 l 0,-5.56114 q 3.303974,-1.27579 6.411673,-1.89733 3.107698,-0.65426 6.051833,-0.65426 7.949165,0 11.874676,4.12179 3.92552,4.12179 3.92552,12.4962 z"
         style="font-style:normal;font-variant:normal;font-weight:normal;font-stretch:normal;font-size:medium;line-height:125%;font-family:Dingbats;-inkscape-font-specification:Dingbats;letter-spacing:1px;word-spacing:0px;fill:#4d4d4d;fill-opacity:0.94117647;stroke:none;stroke-width:1px;stroke-linecap:butt;stroke-linejoin:miter;stroke-opacity:1"
         id="path4235"
         inkscape:connector-curvature="0" />
      <path
         d="m 119.00876,977.16506 6.01912,0 0,50.90084 -6.01912,0 0,-50.90084 z"
         style="font-style:normal;font-variant:normal;font-weight:normal;font-stretch:normal;font-size:medium;line-height:125%;font-family:Dingbats;-inkscape-font-specification:Dingbats;letter-spacing:1px;word-spacing:0px;fill:#4d4d4d;fill-opacity:0.94117647;stroke:none;stroke-width:1px;stroke-linecap:butt;stroke-linejoin:miter;stroke-opacity:1"
         id="path4237"
         inkscape:connector-curvature="0" />
      <g
         id="g4263">
        <path
           style="font-style:normal;font-variant:normal;font-weight:normal;font-stretch:normal;font-size:medium;line-height:125%;font-family:Dingbats;-inkscape-font-specification:Dingbats;letter-spacing:1.67488575px;word-spacing:0px;fill:#4d4d4d;fill-opacity:0.94117647;stroke:none;stroke-width:1px;stroke-linecap:butt;stroke-linejoin:miter;stroke-opacity:1"
           d="m 137.72656,24.802734 0,44.712891 6.01953,-16.080078 0,-28.632813 z"
           transform="translate(0,952.36216)"
           id="path4230"
           inkscape:connector-curvature="0"
           sodipodi:nodetypes="ccccc" />
        <g
           transform="matrix(-1,0,0,1,171.29796,977.1652)"
           style="font-style:normal;font-weight:normal;font-size:66.99542999px;line-height:125%;font-family:sans-serif;letter-spacing:1.67488575px;word-spacing:0px;fill:#2186b6;fill-opacity:1;stroke:none;stroke-width:1px;stroke-linecap:butt;stroke-linejoin:miter;stroke-opacity:1"
           id="flowRoot4144-4">
          <path
             d="m 16.976124,5.7245679 16.912421,45.1761181 -6.37896,0 -10.27176,-27.086043 -12.6270681,27.086043 -6.3789594,0 L 14.29369,15.76734 11.872957,9.2902427 Q 10.335464,5.1684535 6.8352145,5.1684535 l -3.1404108,0 0,-5.16859272455 L 7.5221794,0.065286 Q 14.91523,0.16342384 16.976124,5.7245679 Z"
             style="font-style:normal;font-variant:normal;font-weight:normal;font-stretch:normal;font-family:Dingbats;-inkscape-font-specification:Dingbats;fill:#2186b6;fill-opacity:1"
             id="path4203"
             inkscape:connector-curvature="0" />
        </g>
      </g>
    </g>
  </g>
</svg>
